<mxfile host="app.diagrams.net" modified="2020-07-13T13:06:48.352Z" agent="5.0 (Macintosh; Intel Mac OS X 10_15_5) AppleWebKit/537.36 (KHTML, like Gecko) Chrome/83.0.4103.116 Safari/537.36" etag="CliPgNSuCUDOucG0hN_c" version="13.4.2" type="github">
  <diagram id="xjk_fRABkYlJo_iAB23i" name="第 1 页">
    <mxGraphModel dx="905" dy="533" grid="1" gridSize="10" guides="1" tooltips="1" connect="1" arrows="1" fold="1" page="1" pageScale="1" pageWidth="827" pageHeight="1169" math="0" shadow="0">
      <root>
        <mxCell id="0" />
        <mxCell id="1" parent="0" />
      </root>
    </mxGraphModel>
  </diagram>
</mxfile>
